<?xml version="1.0" encoding="iso-8859-1"?>
<!-- Generator: Adobe Illustrator 16.0.3, SVG Export Plug-In . SVG Version: 6.00 Build 0)  -->
<!DOCTYPE svg PUBLIC "-//W3C//DTD SVG 1.1//EN" "http://www.w3.org/Graphics/SVG/1.1/DTD/svg11.dtd">
<svg version="1.1" id="Layer_1" xmlns="http://www.w3.org/2000/svg" xmlns:xlink="http://www.w3.org/1999/xlink" x="0px" y="0px"
	 width="50px" height="50px" viewBox="0 0 50 50" style="enable-background:new 0 0 50 50;" xml:space="preserve">
<path style="fill:#00AC5F;" d="M15.071,45.586c-3.613,0.001-6.544-2.715-6.819-6.318c-0.3-3.896,2.63-7.456,6.533-7.936
	c0.722-0.092,1.437-0.07,2.129,0.055V8.849c0-0.487,0.351-0.908,0.832-0.99L40.748,3.93c0.281-0.063,0.583-0.001,0.818,0.174
	c0.276,0.207,0.432,0.539,0.402,0.883L41.96,5.092l0.003,30.119c0,0.039-0.002,0.077-0.006,0.115
	c0.281,3.882-2.647,7.431-6.539,7.915c-4.004,0.499-7.416-2.372-7.709-6.269c-0.298-3.891,2.635-7.451,6.538-7.934
	c0.732-0.09,1.441-0.069,2.13,0.055V15.047l-13.873,2.581v19.874c0,0.047-0.003,0.092-0.009,0.137c0,0.012,0,0.022,0,0.033
	c0.293,3.814-2.637,7.373-6.534,7.859C15.661,45.568,15.363,45.586,15.071,45.586z M15.676,33.275c-0.212,0-0.427,0.014-0.644,0.041
	c-2.86,0.352-5.006,2.953-4.787,5.799c0.211,2.762,2.633,4.777,5.469,4.432c2.853-0.355,5-2.957,4.783-5.799
	c-0.003-0.018-0.016-0.111-0.018-0.129c-0.015-0.123-0.006-0.246,0.024-0.363V16.797c0-0.482,0.343-0.895,0.817-0.983l15.873-2.953
	c0.293-0.057,0.594,0.023,0.822,0.214c0.229,0.19,0.361,0.472,0.361,0.769v16.574c0,0.334-0.166,0.645-0.441,0.83
	S37.311,31.471,37,31.345c-0.781-0.317-1.626-0.429-2.508-0.321c-2.858,0.354-5.006,2.955-4.789,5.799
	c0.208,2.762,2.638,4.782,5.469,4.435c2.855-0.356,5.004-2.959,4.789-5.804c-0.021-0.123-0.021-0.255,0.002-0.383V6.093
	L18.914,9.688v23.027c0,0.334-0.166,0.645-0.443,0.831c-0.276,0.186-0.627,0.222-0.936,0.095
	C16.944,33.398,16.318,33.275,15.676,33.275z"/>
</svg>
