<?xml version="1.0" encoding="iso-8859-1"?>
<!-- Generator: Adobe Illustrator 16.0.3, SVG Export Plug-In . SVG Version: 6.00 Build 0)  -->
<!DOCTYPE svg PUBLIC "-//W3C//DTD SVG 1.1//EN" "http://www.w3.org/Graphics/SVG/1.1/DTD/svg11.dtd">
<svg version="1.1" id="Layer_1" xmlns="http://www.w3.org/2000/svg" xmlns:xlink="http://www.w3.org/1999/xlink" x="0px" y="0px"
	 width="50px" height="50px" viewBox="0 0 50 50" style="enable-background:new 0 0 50 50;" xml:space="preserve">
<path style="fill:#00AC5F;" d="M28.5,48h-9c-0.552,0-1.5-0.447-1.5-1V27h-3.5c-0.552,0-1.5-0.447-1.5-1v-8c0-0.552,0.948-1,1.5-1H18
	v-5.192c0-2.949,1.078-5.308,2.77-7.011C22.613,2.941,25.606,2,29.173,2H36.5C37.053,2,37,2.448,37,3v8c0,0.552,0.053,1-0.5,1
	h-5.459c-0.536,0-1.443,0.671-1.549,0.99L29.498,17h6.726c0.278,0,0.543,0.116,0.732,0.319c0.188,0.204,0.285,0.477,0.265,0.753
	c-0.289,3.992-0.892,8.035-0.898,8.076C36.25,26.638,35.829,27,35.334,27H29v20C29,47.553,29.053,48,28.5,48z M20,46h7V26
	c0-0.552,0.947-1,1.5-1h5.965c0.166-1.207,0.467-3.542,0.676-6H28.5c-0.553,0-1.5-0.448-1.5-1v-5.082C27,11.471,29.561,10,31.041,10
	H35V4h-5.827c-3.015,0-5.53,0.742-6.984,2.207C20.886,7.518,20,9.398,20,11.794V18c0,0.552,0.052,1-0.5,1H15v6h4.5
	c0.552,0,0.5,0.448,0.5,1V46z"/>
</svg>
