<?xml version="1.0" encoding="iso-8859-1"?>
<!-- Generator: Adobe Illustrator 16.0.3, SVG Export Plug-In . SVG Version: 6.00 Build 0)  -->
<!DOCTYPE svg PUBLIC "-//W3C//DTD SVG 1.1//EN" "http://www.w3.org/Graphics/SVG/1.1/DTD/svg11.dtd">
<svg id="Logo" x="0px" y="0px"
	 width="200px" height="200px" viewBox="0 0 200 200" style="enable-background:new 0 0 200 200;" xml:space="preserve">
<rect id="Block1" x="18" y="47" style="fill:#AFAEAF;" width="33" height="33"/>
<rect id="Block2" x="18" y="80" style="fill:#00AF62;" width="33" height="33"/>
<rect id="Block3" x="18" y="113" style="fill:#2D2D2C;" width="33" height="33"/>
<rect id="Block4" x="51" y="80" style="fill:#AFAEAF;" width="33" height="33"/>
<rect id="Block5" x="51" y="113" style="fill:#00AF62;" width="33" height="33"/>
<rect id="Block6" x="83" y="47" style="fill:#AFAEAF;" width="33" height="33"/>
<rect id="Block7" x="83" y="80" style="fill:#00AF62;" width="33" height="33"/>
<rect id="Block8" x="83" y="113" style="fill:#2D2D2C;" width="33" height="33"/>
<rect id="Block9" x="116" y="14" style="fill:#AFAEAF;" width="33" height="33"/>
<rect id="Block10" x="116" y="47" style="fill:#00AF62;" width="33" height="33"/>
<rect id="Block11" x="116" y="80" style="fill:#2D2D2C;" width="33" height="33"/>
<rect id="Block12" x="116" y="113" style="fill:#202020;" width="33" height="33"/>
<rect id="Block13" x="149" y="47" style="fill:#AFAEAF;" width="33" height="33"/>
<rect id="Block14" x="149" y="80" style="fill:#00AF62;" width="33" height="33"/>
<rect id="Block15" x="149" y="113" style="fill:#2D2D2C;" width="33" height="33"/>
<rect x="11.125" y="149.75" style="fill:none;" width="76.75" height="33.75"/>
<text transform="matrix(1 0 0 1 11.125 181.1494)" style="fill:#00AF62; font-family:'Exo-Thin'; font-size:40;">SYN</text>
<rect x="87" y="149.75" style="fill:none;" width="102.75" height="33.75"/>
<text transform="matrix(1 0 0 1 87 181.1494)" style="fill:#AFAEAF; font-family:'Exo-Regular'; font-size:40;">TONE</text>
</svg>
