<?xml version="1.0" encoding="iso-8859-1"?>
<!-- Generator: Adobe Illustrator 16.0.3, SVG Export Plug-In . SVG Version: 6.00 Build 0)  -->
<!DOCTYPE svg PUBLIC "-//W3C//DTD SVG 1.1//EN" "http://www.w3.org/Graphics/SVG/1.1/DTD/svg11.dtd">
<svg version="1.1" id="Layer_1" xmlns="http://www.w3.org/2000/svg" xmlns:xlink="http://www.w3.org/1999/xlink" x="0px" y="0px"
	 width="50px" height="50px" viewBox="0 0 50 50" style="enable-background:new 0 0 50 50;" xml:space="preserve">
<path style="fill:#00AC5F;" d="M42.242,37.958L42.242,37.958l-15.994-0.013c-1.103-0.002-2.248-0.899-2.248-2V13.876
	c0-0.854,0.802-1.619,1.624-1.902c0.916-0.318,1.994-0.479,2.956-0.479c5.491,0,10.235,5.291,10.721,12.046
	c0.008,0.129,0.101,0.23,0.197,0.284c0.104,0.06,0.143,0.115,0.36,0.008c0.718-0.367,1.496-0.555,2.292-0.555
	c3.31,0,6.006,3.296,6.006,7.347C48.156,34.668,45.505,37.958,42.242,37.958z M28.705,13.494c-0.738,0-1.471,0.124-2.177,0.369
	L26.5,35.945l15.743,0.013c2.16,0,3.917-2.393,3.917-5.334c0-2.898-1.833-5.347-4.002-5.347c-0.483,0-0.935,0.11-1.38,0.339
	c-0.744,0.374-1.603,0.326-2.247-0.06c-0.669-0.368-1.115-1.08-1.163-1.886C36.958,17.97,33.152,13.494,28.705,13.494z"/>
<path style="fill:#00AC5F;" d="M21,38c-0.553,0-1-0.447-1-1V14c0-0.553,0.447-1,1-1s1,0.447,1,1v23C22,37.553,21.553,38,21,38z"/>
<path style="fill:#00AC5F;" d="M18,38c-0.553,0-1-0.447-1-1V16c0-0.553,0.447-1,1-1s1,0.447,1,1v21C19,37.553,18.553,38,18,38z"/>
<path style="fill:#00AC5F;" d="M15,38c-0.553,0-1-0.447-1-1V21c0-0.553,0.447-1,1-1s1,0.447,1,1v16C16,37.553,15.553,38,15,38z"/>
<path style="fill:#00AC5F;" d="M12,38c-0.553,0-1-0.447-1-1V26c0-0.553,0.447-1,1-1s1,0.447,1,1v11C13,37.553,12.553,38,12,38z"/>
<path style="fill:#00AC5F;" d="M9,38c-0.553,0-1-0.447-1-1V27c0-0.553,0.447-1,1-1s1,0.447,1,1v10C10,37.553,9.553,38,9,38z"/>
<path style="fill:#00AC5F;" d="M6,38c-0.553,0-1-0.447-1-1v-7c0-0.553,0.447-1,1-1s1,0.447,1,1v7C7,37.553,6.553,38,6,38z"/>
</svg>
