<?xml version="1.0" encoding="iso-8859-1"?>
<!-- Generator: Adobe Illustrator 16.0.3, SVG Export Plug-In . SVG Version: 6.00 Build 0)  -->
<!DOCTYPE svg PUBLIC "-//W3C//DTD SVG 1.1//EN" "http://www.w3.org/Graphics/SVG/1.1/DTD/svg11.dtd">
<svg version="1.1" id="Layer_1" xmlns="http://www.w3.org/2000/svg" xmlns:xlink="http://www.w3.org/1999/xlink" x="0px" y="0px"
	 width="50px" height="50px" viewBox="0 0 50 50" style="enable-background:new 0 0 50 50;" xml:space="preserve">
<path style="fill:#00AC5F;" d="M21.159,41c-7.478,0-13.955-3.215-18.24-9.053c-0.307-0.418-0.243-1.001,0.146-1.343
	c0.39-0.341,0.976-0.33,1.351,0.027c1.87,1.784,4.487,2.807,7.181,2.807c2.162,0,4.219-0.646,5.958-1.85
	c-0.904-0.411-1.563-1.131-1.743-2.003c-0.055-0.263-0.118-0.866,0.218-1.539c-2.366-0.611-3.451-2.39-3.764-3.011
	c-0.19-0.378-0.123-0.835,0.17-1.141c0.217-0.228,0.439-0.424,0.676-0.593c-1.556-0.924-2.488-2.263-2.828-4.045
	c-0.1-0.525,0.23-1.035,0.75-1.16c0.06-0.015,0.132-0.031,0.214-0.05c-1.638-1.587-2.155-3.435-2.022-4.868
	c0.029-0.31,0.2-0.588,0.463-0.754c0.263-0.165,0.589-0.199,0.88-0.091c4.549,1.689,8.033,3.223,11.298,4.975
	c0.71,0.379,1.472,0.938,2.429,1.794c1.565-3.901,3.517-7.611,6.674-9.628c0.325-0.207,0.74-0.209,1.067-0.006
	c0.048,0.03,0.094,0.064,0.136,0.102c0.625-0.28,1.285-0.472,1.95-0.563c0.315-0.041,0.627,0.065,0.849,0.29
	c0.116,0.118,0.199,0.261,0.246,0.416c0.134-0.016,0.264-0.023,0.387-0.023c0.994,0,1.373,0.539,1.51,0.859
	c0.175,0.392,0.169,0.831-0.022,1.223c-0.146,0.298-0.378,0.536-0.675,0.733c2.896,1.222,5.346,3.967,6.259,7.318
	c0.038,0.142,0.076,0.29,0.113,0.442c0.206,0.03,0.438,0.046,0.69,0.046c1.253,0,2.639-0.379,3.08-0.65
	c0.371-0.226,0.846-0.189,1.176,0.095c0.33,0.283,0.438,0.747,0.269,1.147c-0.338,0.799-0.877,1.479-1.581,2.021
	c0.246-0.014,0.476-0.038,0.684-0.074c0.422-0.065,0.845,0.135,1.048,0.512c0.203,0.378,0.144,0.843-0.149,1.156
	c-1.279,1.373-3.012,2.132-5.158,2.262C40.381,35.064,31.401,41,21.159,41z M8.906,35.149C12.344,37.661,16.541,39,21.159,39
	c9.482,0,18.058-5.678,19.949-13.34c0.111-0.45,0.518-0.66,0.979-0.66c0.001,0,0.001,0,0.002,0c0.499,0,0.962-0.133,1.392-0.202
	c-0.576-0.112-1.103-0.313-1.524-0.488c-0.426-0.177-0.675-0.647-0.603-1.103c0.071-0.456,0.445-0.816,0.905-0.854
	c0.179-0.015,0.354-0.041,0.523-0.066c-0.44-0.044-0.836-0.133-1.181-0.261c-0.322-0.12-0.561-0.397-0.631-0.734
	c-0.07-0.336-0.147-0.656-0.225-0.944c-1.071-3.934-4.639-6.854-8.168-6.494c-0.496,0.045-0.951-0.272-1.07-0.756
	c-0.037-0.152-0.038-0.306-0.007-0.45c-0.073-0.038-0.141-0.085-0.202-0.14c-0.279,0.139-0.609,0.137-0.887,0
	c-2.104,2.154-3.543,5.41-4.784,8.689c-0.119,0.315-0.389,0.549-0.717,0.622c-0.329,0.075-0.672-0.023-0.914-0.258
	c-1.347-1.306-2.294-2.072-3.073-2.487c-2.805-1.505-5.785-2.849-9.505-4.279c0.377,1.044,1.287,2.178,2.991,3.067
	c0.431,0.226,0.637,0.727,0.49,1.189c-0.146,0.463-0.603,0.752-1.086,0.688c-0.283-0.039-0.738,0.006-1.282,0.095
	c0.438,1.007,1.419,2.027,3.841,2.6c0.481,0.114,0.808,0.563,0.767,1.057s-0.437,0.882-0.931,0.915
	c-0.832,0.055-1.344,0.186-1.727,0.396c0.608,0.756,1.826,1.648,3.929,1.418c0.49-0.052,0.949,0.26,1.075,0.739
	c0.126,0.479-0.117,0.978-0.571,1.173c-0.865,0.373-1.198,0.797-1.146,1.051c0.076,0.366,0.883,0.91,1.962,0.752
	c0.427-0.057,0.84,0.152,1.035,0.533c0.195,0.381,0.126,0.844-0.172,1.151c-2.385,2.464-5.581,3.82-9,3.82
	C10.687,35.438,9.784,35.34,8.906,35.149z"/>
</svg>
