<?xml version="1.0" encoding="iso-8859-1"?>
<!-- Generator: Adobe Illustrator 16.0.3, SVG Export Plug-In . SVG Version: 6.00 Build 0)  -->
<!DOCTYPE svg PUBLIC "-//W3C//DTD SVG 1.1//EN" "http://www.w3.org/Graphics/SVG/1.1/DTD/svg11.dtd">
<svg version="1.1" id="Layer_1" xmlns="http://www.w3.org/2000/svg" xmlns:xlink="http://www.w3.org/1999/xlink" x="0px" y="0px"
	 width="50px" height="50px" viewBox="0 0 50 50" style="enable-background:new 0 0 50 50;" xml:space="preserve">
<path style="fill:#00AC5F;" d="M39.737,42H10.691C6.726,42,3.5,38.772,3.5,34.805V18.195C3.5,14.228,6.726,11,10.691,11h29.046
	c3.966,0,7.191,3.228,7.191,7.195v16.609C46.929,38.772,43.703,42,39.737,42z M10.691,13C7.829,13,5.5,15.331,5.5,18.195v16.609
	C5.5,37.669,7.829,40,10.691,40h29.046c2.862,0,5.191-2.331,5.191-5.195V18.195c0-2.864-2.329-5.195-5.191-5.195H10.691z
	 M21.071,35.602c-0.163,0-0.326-0.04-0.474-0.119c-0.324-0.175-0.526-0.513-0.526-0.881V19c0-0.368,0.202-0.706,0.526-0.881
	c0.324-0.172,0.718-0.155,1.024,0.046l11.832,7.801c0.28,0.186,0.449,0.499,0.449,0.835s-0.169,0.649-0.449,0.835l-11.832,7.801
	C21.456,35.546,21.264,35.602,21.071,35.602z M22.071,20.857v11.887l9.015-5.943L22.071,20.857z"/>
</svg>
